<svg width="291" height="291" viewBox="0 0 291 291" fill="none" xmlns="http://www.w3.org/2000/svg">
<g filter="url(#filter0_d_258_880)">
<g filter="url(#filter1_d_258_880)">
<path d="M104.427 131.051C105.134 127.009 106.751 123.17 108.772 119.583C109.782 117.764 110.994 116.097 112.257 114.48C113.571 112.864 114.986 111.348 116.501 109.933C118.067 108.569 119.684 107.256 121.452 106.144C123.221 105.033 125.039 104.022 126.959 103.214C130.799 101.597 134.84 100.638 138.932 100.435C135.042 101.597 131.253 103.012 127.767 104.831C124.281 106.7 120.998 108.973 118.118 111.651C116.653 112.965 115.289 114.379 113.975 115.895C112.662 117.36 111.5 118.977 110.338 120.593C108.064 123.827 106.094 127.313 104.427 131.051Z" fill="#FCBD0B"/>
<path d="M196.829 131.051C195.213 127.312 193.192 123.827 190.969 120.543C189.807 118.926 188.645 117.309 187.331 115.844C186.018 114.329 184.654 112.914 183.189 111.601C180.309 108.923 177.025 106.7 173.539 104.78C170.003 102.961 166.264 101.547 162.374 100.385C166.466 100.587 170.508 101.547 174.347 103.164C176.267 103.972 178.086 104.982 179.854 106.094C181.572 107.256 183.239 108.519 184.805 109.883C186.321 111.297 187.735 112.813 189.049 114.43C190.312 116.046 191.525 117.764 192.535 119.532C194.505 123.17 196.122 127.009 196.829 131.051Z" fill="#FCBD0B"/>
<path d="M122.968 84.0668C124.382 83.6121 125.797 83.3595 127.161 83.1574C128.576 83.0058 129.99 82.9048 131.354 82.9048C132.769 82.9048 134.183 83.0058 135.547 83.1574C136.962 83.3595 138.377 83.5615 139.741 84.0668C138.326 84.5214 136.912 84.7741 135.547 84.9761C134.133 85.1277 132.718 85.2287 131.354 85.2287C129.94 85.2287 128.525 85.1277 127.161 84.9761C125.746 84.8246 124.382 84.572 122.968 84.0668Z" fill="#FCBD0B"/>
<path d="M131.405 92.5038C130.95 91.0892 130.697 89.6746 130.495 88.3105C130.344 86.8959 130.243 85.4814 130.243 84.1173C130.243 82.7027 130.344 81.2881 130.495 79.9241C130.697 78.5095 130.899 77.0949 131.405 75.7308C131.859 77.1454 132.112 78.56 132.314 79.9241C132.466 81.3386 132.567 82.7532 132.567 84.1173C132.567 85.5319 132.466 86.9465 132.314 88.3105C132.112 89.6746 131.859 91.0892 131.405 92.5038Z" fill="#FCBD0B"/>
<path d="M137.114 92.7058C138.124 92.3522 139.084 92.2006 140.094 92.0995C141.105 91.948 142.065 91.8975 143.075 91.8975C144.086 91.8975 145.046 91.948 146.056 92.0995C147.066 92.2006 148.026 92.4027 149.037 92.7563C148.026 93.11 147.066 93.2615 146.056 93.4131C145.046 93.5646 144.086 93.5647 143.075 93.6152C142.065 93.6152 141.105 93.5646 140.094 93.4131C139.135 93.211 138.124 93.0089 137.114 92.7058Z" fill="#FCBD0B"/>
<path d="M143.075 98.6168C142.722 97.6063 142.57 96.6465 142.469 95.636C142.317 94.6256 142.267 93.6657 142.267 92.6553C142.267 91.6449 142.317 90.685 142.469 89.6746C142.57 88.6642 142.772 87.7043 143.126 86.6938C143.479 87.7043 143.631 88.6642 143.782 89.6746C143.934 90.685 143.985 91.6449 143.985 92.6553C143.985 93.6657 143.934 94.6256 143.782 95.636C143.58 96.6465 143.429 97.6569 143.075 98.6168Z" fill="#FCBD0B"/>
<path d="M154.897 112.156L170.811 109.479L147.016 145.449H195.162C195.314 145.449 195.465 145.449 195.566 145.449C195.061 123.776 179.198 105.942 158.383 102.355L152.22 112.611L154.897 112.156Z" fill="#FCBD0B"/>
<path d="M136.861 145.45L145.753 129.03L141.913 129.687L141.863 129.738L126.454 132.264L144.591 102.103C123.069 105.033 106.397 123.22 105.841 145.45C105.993 145.45 106.144 145.45 106.245 145.45H136.861Z" fill="#FCBD0B"/>
<path d="M103.315 149.542C102.962 149.996 102.76 150.552 102.76 151.209V151.462C102.76 152.977 103.972 154.19 105.488 154.19H131.253L133.779 149.542H103.315Z" fill="#FCBD0B"/>
<path d="M140.347 154.19H194.303C195.819 154.19 197.031 152.977 197.031 151.462V151.209C197.031 150.603 196.829 149.996 196.476 149.542H143.429L140.347 154.19Z" fill="#FCBD0B"/>
<path d="M160.05 93.8172L174.246 70.2745L166.618 71.5376L156.514 88.361C158.231 89.6745 159.545 91.5943 160.05 93.8172Z" fill="#FCBD0B"/>
<path d="M157.272 95.9391C157.272 98.5156 155.806 100.739 153.634 101.8C154.139 101.85 154.644 101.901 155.15 101.951L160 93.8677C159.494 91.6448 158.181 89.725 156.463 88.361L154.897 90.9375C156.362 92.15 157.272 93.9183 157.272 95.9391Z" fill="#FCBD0B"/>
<path d="M140.094 126.959L151.361 124.989L140.297 145.399H143.378L157.625 123.928L164.496 113.52L156.867 114.783V114.834L146.309 116.602L155.2 101.901C154.695 101.85 154.19 101.8 153.685 101.749C155.857 100.688 157.322 98.4652 157.322 95.8887C157.322 93.8678 156.413 92.0491 154.948 90.8871L132.466 128.171L140.094 126.959Z" fill="#FCBD0B"/>
<path d="M142.671 146.51H139.69L138.68 148.43H141.408L142.671 146.51Z" fill="#FCBD0B"/>
<path d="M143.378 145.449H140.296L139.69 146.51H142.671L143.378 145.449Z" fill="#FCBD0B"/>
<path d="M111.904 157.221C111.752 157.221 111.601 157.17 111.449 157.17C109.731 157.17 108.317 158.231 108.317 159.545C108.317 160.858 109.731 161.919 111.449 161.919H127.97L130.496 157.221H111.904Z" fill="#FCBD0B"/>
<path d="M137.215 160.202L136.103 161.919H188.392C190.11 161.919 191.525 160.858 191.525 159.545C191.525 158.231 190.11 157.17 188.392 157.17C188.241 157.17 188.089 157.17 187.938 157.221H139.236L137.215 160.202Z" fill="#FCBD0B"/>
<path d="M131.405 161.869H132.466L133.628 160.202H132.314L131.405 161.869Z" fill="#FCBD0B"/>
<path d="M129.283 165.557L131.051 163.94L130.142 163.89L129.283 165.557Z" fill="#FCBD0B"/>
<path d="M132.213 160.404L130.142 163.89L131.001 163.991L133.476 160.404H132.213Z" fill="#FCBD0B"/>
<path d="M141.155 154.19L143.176 151.209L141.155 154.19Z" fill="#FCBD0B"/>
<path d="M137.215 160.202L139.185 157.221L137.215 160.202Z" fill="#FCBD0B"/>
<path d="M135.598 157.17H133.931V157.221H135.598V157.17Z" fill="#FCBD0B"/>
<path d="M133.931 157.221L132.314 160.202H133.628L135.598 157.221H133.931Z" fill="#FCBD0B"/>
<path d="M137.164 151.209L138.074 149.542H140.65L139.589 151.209" fill="#FCBD0B"/>
<path d="M137.568 154.19H135.548L133.931 157.17H135.598L137.568 154.19Z" fill="#FCBD0B"/>
<path d="M140.65 149.542H138.074L137.164 151.209H139.589L140.65 149.542Z" fill="#FCBD0B"/>
<path d="M139.589 151.209H137.164L135.548 154.19H137.568L139.589 151.209Z" fill="#FCBD0B"/>
<path d="M138.68 148.43L138.073 149.542H140.65L141.408 148.43H138.68Z" fill="#FCBD0B"/>
<path d="M60.8777 174.802C60.8271 174.752 60.6251 174.6 60.2209 174.347C59.8673 174.095 59.4126 173.893 58.8568 173.64C58.3011 173.388 57.7454 173.185 57.0886 173.034C56.4318 172.882 55.7751 172.781 55.1688 172.781C54.31 172.781 53.6532 172.933 53.1985 173.236C52.7438 173.539 52.4912 173.994 52.4912 174.549C52.4912 175.004 52.6428 175.408 52.9964 175.661C53.3501 175.964 53.8553 176.217 54.512 176.419C55.1688 176.621 55.9771 176.873 56.9876 177.126C58.3516 177.53 59.5641 177.934 60.5745 178.44C61.585 178.945 62.3428 179.602 62.8985 180.41C63.4542 181.218 63.7068 182.279 63.7068 183.593C63.7068 184.755 63.5048 185.816 63.0501 186.624C62.5954 187.483 61.9891 188.14 61.2313 188.645C60.4735 189.15 59.5641 189.504 58.6042 189.756C57.6443 190.009 56.6339 190.11 55.6235 190.11C54.5626 190.11 53.5016 190.009 52.3902 189.756C51.2787 189.554 50.2178 189.201 49.2074 188.796C48.1969 188.392 47.2876 187.938 46.4287 187.382L48.6011 183.037C48.7021 183.138 48.9548 183.34 49.4094 183.593C49.8641 183.845 50.4199 184.148 51.0766 184.452C51.7334 184.755 52.4912 185.007 53.2995 185.26C54.1079 185.513 54.9162 185.614 55.7245 185.614C56.6339 185.614 57.2907 185.462 57.7454 185.209C58.2001 184.906 58.4021 184.553 58.4021 184.047C58.4021 183.542 58.1495 183.088 57.6949 182.784C57.2402 182.481 56.6339 182.178 55.8256 181.926C55.0678 181.673 54.1584 181.42 53.148 181.117C51.8344 180.713 50.723 180.258 49.8641 179.753C49.0053 179.248 48.3485 178.642 47.9443 177.934C47.5402 177.227 47.3381 176.318 47.3381 175.257C47.3381 173.741 47.6917 172.428 48.399 171.417C49.1063 170.407 50.0662 169.598 51.2787 169.093C52.4912 168.538 53.8048 168.285 55.2699 168.285C56.2803 168.285 57.2907 168.386 58.2001 168.639C59.1094 168.891 60.0188 169.194 60.8271 169.548C61.6355 169.902 62.3933 170.306 62.9995 170.659L60.8777 174.802Z" fill="#FCBD0B"/>
<path d="M74.1142 168.537H78.7116L80.9345 175.459L83.2079 168.537H87.8053L84.1173 178.541L86.2897 184.249L91.6954 168.487H97.1012L88.7147 190.009H84.4204L80.9345 181.572L77.4991 190.009H73.1543L64.7678 168.487H70.1735L75.5793 184.249L77.7012 178.541L74.1142 168.537Z" fill="#FCBD0B"/>
<path d="M99.8293 190.009V168.487H104.78V190.009H99.8293Z" fill="#FCBD0B"/>
<path d="M109.782 190.009V168.487H124.382V172.832H114.783V177.429H122.715V181.521H114.783V189.958H109.782V190.009Z" fill="#FCBD0B"/>
<path d="M144.288 172.882H137.72V190.059H132.769V172.882H126.201V168.537H144.288V172.882Z" fill="#FCBD0B"/>
<path d="M167.78 190.009V177.126L163.132 186.472H160.454L155.806 177.126V190.009H150.855V168.487H156.261L161.818 179.753L167.376 168.487H172.781V190.009H167.78Z" fill="#FCBD0B"/>
<path d="M192.838 185.664V190.009H177.682V168.487H192.535V172.832H182.633V177.025H191.12V181.067H182.633V185.664H192.838Z" fill="#FCBD0B"/>
<path d="M202.134 168.487H207.489L214.966 190.009H209.864L208.398 185.209H201.275L199.81 190.009H194.707L202.134 168.487ZM207.388 181.824L204.862 173.539L202.336 181.824H207.388Z" fill="#FCBD0B"/>
<path d="M217.896 190.009V168.487H222.847V185.664H233.255V190.009H217.896Z" fill="#FCBD0B"/>
<path d="M249.421 174.802C249.371 174.752 249.169 174.6 248.765 174.347C248.411 174.095 247.956 173.893 247.401 173.64C246.845 173.388 246.289 173.185 245.632 173.034C244.976 172.882 244.319 172.781 243.713 172.781C242.854 172.781 242.197 172.933 241.742 173.236C241.288 173.539 241.035 173.994 241.035 174.549C241.035 175.004 241.186 175.408 241.54 175.661C241.894 175.964 242.399 176.217 243.056 176.419C243.713 176.621 244.521 176.873 245.531 177.126C246.895 177.53 248.108 177.934 249.118 178.44C250.129 178.945 250.886 179.602 251.442 180.41C251.998 181.218 252.251 182.279 252.251 183.593C252.251 184.755 252.048 185.816 251.594 186.624C251.139 187.483 250.533 188.14 249.775 188.645C249.017 189.15 248.108 189.504 247.148 189.756C246.188 190.009 245.178 190.11 244.167 190.11C243.106 190.11 242.045 190.009 240.934 189.756C239.822 189.554 238.761 189.201 237.751 188.796C236.741 188.392 235.831 187.938 234.972 187.382L237.145 183.037C237.246 183.138 237.498 183.34 237.953 183.593C238.408 183.845 238.964 184.148 239.62 184.452C240.277 184.755 241.035 185.007 241.843 185.26C242.652 185.513 243.46 185.614 244.268 185.614C245.178 185.614 245.834 185.462 246.289 185.209C246.744 184.906 246.946 184.553 246.946 184.047C246.946 183.542 246.693 183.088 246.239 182.784C245.784 182.481 245.178 182.178 244.369 181.926C243.611 181.673 242.702 181.42 241.692 181.117C240.378 180.713 239.267 180.258 238.408 179.753C237.549 179.248 236.892 178.642 236.488 177.934C236.084 177.227 235.882 176.318 235.882 175.257C235.882 173.741 236.235 172.428 236.943 171.417C237.65 170.407 238.61 169.598 239.822 169.093C241.035 168.538 242.348 168.285 243.814 168.285C244.824 168.285 245.834 168.386 246.744 168.639C247.653 168.891 248.563 169.194 249.371 169.548C250.179 169.902 250.937 170.306 251.543 170.659L249.421 174.802Z" fill="#FCBD0B"/>
</g>
</g>
<defs>
<filter id="filter0_d_258_880" x="-2" y="0" width="299" height="299" filterUnits="userSpaceOnUse" color-interpolation-filters="sRGB">
<feFlood flood-opacity="0" result="BackgroundImageFix"/>
<feColorMatrix in="SourceAlpha" type="matrix" values="0 0 0 0 0 0 0 0 0 0 0 0 0 0 0 0 0 0 127 0" result="hardAlpha"/>
<feOffset dx="2" dy="4"/>
<feGaussianBlur stdDeviation="2"/>
<feComposite in2="hardAlpha" operator="out"/>
<feColorMatrix type="matrix" values="0 0 0 0 0 0 0 0 0 0 0 0 0 0 0 0 0 0 0.25 0"/>
<feBlend mode="normal" in2="BackgroundImageFix" result="effect1_dropShadow_258_880"/>
<feBlend mode="normal" in="SourceGraphic" in2="effect1_dropShadow_258_880" result="shape"/>
</filter>
<filter id="filter1_d_258_880" x="42.4287" y="69.2745" width="213.822" height="127.835" filterUnits="userSpaceOnUse" color-interpolation-filters="sRGB">
<feFlood flood-opacity="0" result="BackgroundImageFix"/>
<feColorMatrix in="SourceAlpha" type="matrix" values="0 0 0 0 0 0 0 0 0 0 0 0 0 0 0 0 0 0 127 0" result="hardAlpha"/>
<feOffset dy="3"/>
<feGaussianBlur stdDeviation="2"/>
<feComposite in2="hardAlpha" operator="out"/>
<feColorMatrix type="matrix" values="0 0 0 0 0.854167 0 0 0 0 0.854167 0 0 0 0 0.854167 0 0 0 1 0"/>
<feBlend mode="normal" in2="BackgroundImageFix" result="effect1_dropShadow_258_880"/>
<feBlend mode="normal" in="SourceGraphic" in2="effect1_dropShadow_258_880" result="shape"/>
</filter>
</defs>
</svg>

